<svg width="42" height="42" viewBox="0 0 42 42" fill="none" xmlns="http://www.w3.org/2000/svg">
<path d="M31.8066 5.95807C32.2596 5.95807 32.6269 5.59072 32.6269 5.13772C32.6269 4.68473 32.2596 4.31738 31.8066 4.31738H31.8019C31.3489 4.31738 30.9839 4.68473 30.9839 5.13772C30.9839 5.59072 31.3536 5.95807 31.8066 5.95807Z" fill="white"/>
<path d="M36.2338 5.95807C36.6868 5.95807 37.0541 5.59072 37.0541 5.13772C37.0541 4.68473 36.6868 4.31738 36.2338 4.31738H36.2291C35.7762 4.31738 35.4111 4.68473 35.4111 5.13772C35.4111 5.59072 35.7808 5.95807 36.2338 5.95807Z" fill="white"/>
<path d="M27.3793 5.95807C27.8323 5.95807 28.1996 5.59072 28.1996 5.13772C28.1996 4.68473 27.8323 4.31738 27.3793 4.31738H27.3747C26.9217 4.31738 26.5566 4.68473 26.5566 5.13772C26.5566 5.59072 26.9263 5.95807 27.3793 5.95807Z" fill="white"/>
<path d="M5.76367 5.95807H18.0899C18.5429 5.95807 18.9102 5.59072 18.9102 5.13772C18.9102 4.68473 18.5429 4.31738 18.0899 4.31738H5.76367C5.31061 4.31738 4.94336 4.68473 4.94336 5.13772C4.94336 5.59072 5.31061 5.95807 5.76367 5.95807Z" fill="white"/>
<path d="M39.3684 0H2.63173C1.18059 0 0 1.18055 0 2.63174V33.0076C0 34.4587 1.18059 35.6393 2.63173 35.6393H9.19702C9.72054 36.4319 10.3281 37.1766 11.0155 37.8639C13.6828 40.5313 17.2287 42.0003 21 42.0003C24.7714 42.0003 28.3173 40.5313 30.9846 37.8639C31.6761 37.1723 32.2807 36.4262 32.7985 35.6393H39.3684C40.8194 35.6393 42 34.4587 42 33.0076V2.63174C42 1.18055 40.8194 0 39.3684 0ZM2.63173 1.64068H39.3684C39.9148 1.64068 40.3594 2.08531 40.3594 2.63174V8.6386H1.64062V2.63174C1.64062 2.08531 2.08523 1.64068 2.63173 1.64068ZM39.3684 33.9986H33.7252C36.2451 28.7454 35.3323 22.2444 30.9846 17.8965C28.7742 15.6861 25.9721 14.2992 22.8811 13.8859C19.8896 13.4861 16.7953 14.0661 14.1679 15.5194C13.7714 15.7387 13.6278 16.2378 13.847 16.6343C14.0663 17.0308 14.5656 17.1743 14.9618 16.9551C19.7996 14.2791 25.9113 15.1433 29.8244 19.0566C34.6896 23.922 34.6896 31.8385 29.8244 36.7037C27.467 39.0612 24.3331 40.3596 21 40.3596C17.6669 40.3596 14.533 39.0612 12.1756 36.7037C8.26301 32.7911 7.39889 26.6801 10.0741 21.8431C10.2934 21.4466 10.1497 20.9475 9.75327 20.7281C9.35698 20.5089 8.85773 20.6525 8.63846 21.049C7.1852 23.6764 6.60516 26.7706 7.00506 29.7614C7.20448 31.2524 7.63112 32.6759 8.26694 33.9985H2.63173C2.08523 33.9985 1.64062 33.5539 1.64062 33.0075V10.2791H40.3594V33.0075C40.3594 33.554 39.9148 33.9986 39.3684 33.9986Z" fill="white"/>
<path d="M20.999 32.6062C21.4521 32.6062 21.8193 32.2388 21.8193 31.7858V29.8279C21.8193 29.3749 21.452 29.0076 20.999 29.0076C20.546 29.0076 20.1787 29.3749 20.1787 29.8279V31.7858C20.1787 32.2389 20.546 32.6062 20.999 32.6062Z" fill="white"/>
<path d="M20.9989 37.2825C24.8745 37.2825 28.0276 34.1293 28.0276 30.2535V27.1166C28.0276 26.0552 27.2644 25.1692 26.2582 24.9773V22.8264C26.2582 20.4046 24.2879 18.4343 21.8662 18.4343H20.1316C17.7099 18.4343 15.7397 20.4046 15.7397 22.8264V24.9776C14.7333 25.1702 13.9702 26.0559 13.9702 27.1166V30.2535C13.9701 34.1293 17.1232 37.2825 20.9989 37.2825ZM17.3803 22.8264C17.3803 21.3093 18.6145 20.075 20.1316 20.075H21.8662C23.3833 20.075 24.6175 21.3093 24.6175 22.8264V24.9382H17.3803V22.8264ZM15.6108 27.1166C15.6108 26.8251 15.8581 26.5789 16.1508 26.5789H25.8493C26.1408 26.5789 26.387 26.8251 26.387 27.1166V30.2535C26.387 33.2246 23.9699 35.6418 20.9989 35.6418C18.0279 35.6418 15.6108 33.2246 15.6108 30.2535V27.1166Z" fill="white"/>
<path d="M11.0156 17.8958C10.6953 18.2162 10.6953 18.7356 11.0156 19.056C11.1758 19.2162 11.3858 19.2963 11.5957 19.2963C11.8056 19.2963 12.0156 19.2162 12.1757 19.056L12.178 19.0537C12.4984 18.7334 12.4972 18.2151 12.1769 17.8948C11.8565 17.5744 11.3361 17.5755 11.0156 17.8958Z" fill="white"/>
</svg>
